<svg width="548" height="453" viewBox="0 0 548 453" fill="none" xmlns="http://www.w3.org/2000/svg">
<path opacity="0.1" d="M37.125 423.799C12.8906 430.438 18.015 435.798 3 448.997L822 443.483V170.621C822 170.621 799.426 257.073 781.732 253.414C754.341 247.749 766.253 204.554 738.735 207.818C718.274 210.244 714.847 324.715 685.5 321.808C648.426 318.135 662.988 261.225 626.122 253.414C600.233 247.929 603.068 1.68944 577 0.500526C524.448 -1.89632 515.732 89.3382 459.5 84.0007C403.268 78.6633 414.962 222.459 335.378 207.818C315.334 204.13 306.883 171.774 286.92 176.62C262.265 182.606 264.301 240.56 240.51 253.414C209.411 270.217 193.137 195.706 161.34 207.818C130.881 219.42 132.446 300.059 101.28 300.21C59.3091 300.414 78.5957 412.439 37.125 423.799Z" fill="url(#paint0_linear_1_228)"/>
<path d="M3 450C18.015 436.766 12.8906 431.391 37.125 424.735C78.5957 413.345 59.3091 301.023 101.28 300.819C132.446 300.667 130.881 219.815 161.34 208.182C193.137 196.038 209.411 270.746 240.51 253.899C264.301 241.011 262.265 182.903 286.92 176.902C306.883 172.043 315.334 204.485 335.378 208.182C414.962 222.862 404.775 84 456.863 84C526 84 509.5 23.9997 561 5" stroke="url(#paint1_linear_1_228)" stroke-width="5" stroke-linecap="round"/>
<defs>
<linearGradient id="paint0_linear_1_228" x1="412.5" y1="85.001" x2="412.5" y2="448.986" gradientUnits="userSpaceOnUse">
<stop stop-color="#B0F127"/>
<stop offset="1" stop-color="#B0F127" stop-opacity="0"/>
</linearGradient>
<linearGradient id="paint1_linear_1_228" x1="2.99999" y1="449.997" x2="636.067" y2="272.033" gradientUnits="userSpaceOnUse">
<stop stop-color="#B0F127" stop-opacity="0"/>
<stop offset="0.765067" stop-color="#B0F127"/>
</linearGradient>
</defs>
</svg>
