<svg width="72" height="73" viewBox="0 0 72 73" fill="none" xmlns="http://www.w3.org/2000/svg">
<rect y="0.5" width="72" height="72" rx="36" fill="#1E1F21"/>
<path d="M23.2153 14.6899H48.7852V58.3101H23.2153V14.6899ZM23.2153 61.2793H48.7852C50.4231 61.2793 51.7515 59.9509 51.7515 58.3101V14.6899C51.7515 13.049 50.4231 11.7207 48.7852 11.7207H23.2153C21.5771 11.7207 20.2485 13.049 20.2485 14.6899V58.3101C20.2485 59.9509 21.5771 61.2793 23.2153 61.2793Z" fill="#060606"/>
<path d="M46.5005 18.167C46.5005 17.6147 46.0528 17.167 45.5005 17.167H26.5005C25.9482 17.167 25.5005 17.6147 25.5005 18.167V37.167C25.5005 37.7192 25.9482 38.167 26.5005 38.167H45.5005C46.0528 38.167 46.5005 37.7192 46.5005 37.167V18.167Z" fill="#B0F127"/>
<path d="M30.5005 41.167C30.5005 40.6147 30.0528 40.167 29.5005 40.167H26.5005C25.9482 40.167 25.5005 40.6147 25.5005 41.167C25.5005 41.7192 25.9482 42.167 26.5005 42.167H29.5005C30.0528 42.167 30.5005 41.7192 30.5005 41.167Z" fill="white"/>
<path d="M25.5005 47.167C25.5005 49.3761 27.2913 51.167 29.5005 51.167H31.5005C33.7096 51.167 35.5005 49.3761 35.5005 47.167C35.5005 44.9578 33.7096 43.167 31.5005 43.167H29.5005C27.2913 43.167 25.5005 44.9578 25.5005 47.167Z" fill="white"/>
<path d="M30.5005 41.167C30.5005 41.7192 30.9482 42.167 31.5005 42.167H34.5005C35.0528 42.167 35.5005 41.7192 35.5005 41.167C35.5005 40.6147 35.0528 40.167 34.5005 40.167H31.5005C30.9482 40.167 30.5005 40.6147 30.5005 41.167Z" fill="white"/>
<path d="M41.5005 41.167C41.5005 40.6147 41.0528 40.167 40.5005 40.167H37.5005C36.9482 40.167 36.5005 40.6147 36.5005 41.167C36.5005 41.7192 36.9482 42.167 37.5005 42.167H40.5005C41.0528 42.167 41.5005 41.7192 41.5005 41.167Z" fill="white"/>
<path d="M36.5005 43.667C36.5005 43.9431 36.7243 44.167 37.0005 44.167H46.0005C46.2766 44.167 46.5005 43.9431 46.5005 43.667C46.5005 43.3908 46.2766 43.167 46.0005 43.167H37.0005C36.7243 43.167 36.5005 43.3908 36.5005 43.667Z" fill="#B0F127"/>
<path d="M36.5005 45.667C36.5005 45.9431 36.7243 46.167 37.0005 46.167H46.0005C46.2766 46.167 46.5005 45.9431 46.5005 45.667C46.5005 45.3908 46.2766 45.167 46.0005 45.167H37.0005C36.7243 45.167 36.5005 45.3908 36.5005 45.667Z" fill="#B0F127"/>
<path d="M36.5005 47.667C36.5005 47.9431 36.7243 48.167 37.0005 48.167H46.0005C46.2766 48.167 46.5005 47.9431 46.5005 47.667C46.5005 47.3908 46.2766 47.167 46.0005 47.167H37.0005C36.7243 47.167 36.5005 47.3908 36.5005 47.667Z" fill="#B0F127"/>
<path d="M41.5005 49.667C41.5005 49.3908 41.2766 49.167 41.0005 49.167H37.0005C36.7243 49.167 36.5005 49.3908 36.5005 49.667C36.5005 49.9431 36.7243 50.167 37.0005 50.167H41.0005C41.2766 50.167 41.5005 49.9431 41.5005 49.667Z" fill="#B0F127"/>
<path d="M36.5005 52.667C36.5005 52.9431 36.7243 53.167 37.0005 53.167H46.0005C46.2766 53.167 46.5005 52.9431 46.5005 52.667C46.5005 52.3908 46.2766 52.167 46.0005 52.167H37.0005C36.7243 52.167 36.5005 52.3908 36.5005 52.667Z" fill="#B0F127"/>
<path d="M36.5005 54.667C36.5005 54.9431 36.7243 55.167 37.0005 55.167H46.0005C46.2766 55.167 46.5005 54.9431 46.5005 54.667C46.5005 54.3908 46.2766 54.167 46.0005 54.167H37.0005C36.7243 54.167 36.5005 54.3908 36.5005 54.667Z" fill="#B0F127"/>
<path d="M45.5005 42.167C46.0528 42.167 46.5005 41.7192 46.5005 41.167C46.5005 40.6147 46.0528 40.167 45.5005 40.167H42.5005C41.9482 40.167 41.5005 40.6147 41.5005 41.167C41.5005 41.7192 41.9482 42.167 42.5005 42.167H45.5005Z" fill="white"/>
</svg>
