<svg width="72" height="72" viewBox="0 0 72 72" fill="none" xmlns="http://www.w3.org/2000/svg">
<rect width="72" height="72" rx="36" fill="#1E1F21"/>
<path d="M54.3541 35.6421C54.5529 48.021 44.6406 58.2563 32.2598 58.4522C19.8838 58.651 9.64742 48.7406 9.44959 36.3607C9.25176 23.9799 19.1631 13.7455 31.542 13.5487C39.4837 13.4206 46.5367 17.4564 50.6298 23.633L51.7604 22.9497C47.4312 16.3861 39.9482 12.0932 31.521 12.227C18.412 12.4372 7.92057 23.2727 8.1289 36.3827C8.33915 49.4889 19.1736 59.9842 32.2827 59.773C45.3908 59.5637 55.8851 48.7272 55.6749 35.6211C55.6128 31.6932 54.5911 28.0052 52.846 24.7665L51.7145 25.4488C53.3411 28.4955 54.2948 31.9579 54.3541 35.6421Z" fill="#1E1F21"/>
<path d="M31.563 14.7938C19.8492 14.9801 10.5084 24.6277 10.6958 36.3405C10.884 48.0504 20.5307 57.397 32.2425 57.2087C43.9553 57.0204 53.2961 47.3738 53.1107 35.661C53.0553 32.2015 52.1684 28.9512 50.6527 26.0899L46.0922 28.8442C47.1434 30.9256 47.7694 33.2584 47.8077 35.7451C47.9491 44.5297 40.943 51.7652 32.1575 51.9057C23.3738 52.0471 16.1383 45.0391 15.9969 36.2545C15.8583 27.4708 22.8644 20.2354 31.6471 20.0949C37.19 20.006 42.1099 22.7641 45.0256 27.0169L49.5718 24.2722C45.7052 18.4617 39.0603 14.6733 31.563 14.7938Z" fill="#060606"/>
<path d="M31.6461 20.0951C22.8634 20.2356 15.8573 27.4711 15.9959 36.2548C16.1374 45.0394 23.3729 52.0474 32.1565 51.9059C40.9421 51.7654 47.9481 44.53 47.8067 35.7454C47.7685 33.2587 47.1425 30.9259 46.0912 28.8444L41.5432 31.592C42.1357 32.8841 42.4826 34.3157 42.5065 35.8314C42.6002 41.6868 37.9288 46.5111 32.0705 46.6047C26.2169 46.6984 21.3917 42.027 21.299 36.1716C21.2044 30.3133 25.8777 25.49 31.7321 25.3963C35.3179 25.3399 38.5089 27.0726 40.4728 29.7666L45.0247 27.0171C42.1089 22.7644 37.189 20.0063 31.6461 20.0951Z" fill="white"/>
<path d="M31.7319 25.3965C25.8774 25.4901 21.2042 30.3134 21.2988 36.1717C21.3915 42.0272 26.2167 46.6985 32.0702 46.6049C37.9285 46.5112 42.5999 41.687 42.5063 35.8315C42.4824 34.3158 42.1355 32.8842 41.5429 31.5921L36.948 34.3684C37.1048 34.8567 37.1936 35.3766 37.2032 35.9156C37.25 38.8448 34.9153 41.256 31.9852 41.3038C29.0589 41.3496 26.6458 39.013 26.599 36.0848C26.5531 33.1575 28.8888 30.7444 31.816 30.6986C33.4454 30.6737 34.9134 31.3857 35.9035 32.5249L40.4726 29.7668C38.5086 27.0727 35.3176 25.3401 31.7319 25.3965Z" fill="#060606"/>
<path d="M31.8168 30.6978C28.8896 30.7437 26.5539 33.1568 26.5998 36.084C26.6466 39.0122 29.0597 41.3489 31.986 41.303C34.9161 41.2552 37.2508 38.844 37.204 35.9149C37.1944 35.3759 37.1056 34.856 36.9488 34.3676L33.5677 36.408C33.1405 36.666 32.5833 36.5399 32.3061 36.1194L32.2555 36.043C31.9229 35.5278 32.0777 34.8369 32.6053 34.5177L35.9043 32.5241C34.9142 31.3849 33.4463 30.673 31.8168 30.6978Z" fill="#B0F127"/>
<path d="M62.3428 22.6124C62.5549 22.7242 62.8092 22.7165 63.0118 22.5942L63.7113 22.1718C63.8165 22.1087 63.8786 21.9921 63.8738 21.8688C63.8719 21.7446 63.8021 21.6347 63.6931 21.5755L60.462 19.8724L60.8242 19.6545C60.9007 19.6067 60.959 19.5303 60.98 19.4414C61.001 19.3535 60.9857 19.2598 60.937 19.1805L60.4821 18.4504C60.3827 18.2917 60.1734 18.2421 60.0138 18.3395L59.6392 18.5651L59.5598 14.9497C59.557 14.8293 59.4911 14.7175 59.3831 14.6583C59.2779 14.6 59.147 14.6019 59.0419 14.664L58.3471 15.0835C58.1397 15.2097 58.0155 15.4371 58.0194 15.6808L58.1034 19.494L57.9189 19.6067L57.8387 15.9905C57.8368 15.8701 57.769 15.7563 57.661 15.698C57.5549 15.6397 57.424 15.6416 57.3188 15.7047L56.624 16.1233C56.4157 16.2504 56.2905 16.4779 56.2953 16.7216L56.3813 20.5347L56.194 20.6475L56.1137 17.0322C56.1118 16.9098 56.0439 16.797 55.9379 16.7397C55.8299 16.6795 55.7018 16.6814 55.5938 16.7464L54.9019 17.165C54.6926 17.2912 54.5693 17.5186 54.5741 17.7604L54.6448 21.0087C54.6467 21.131 54.5866 21.2429 54.4833 21.305L51.7606 22.9497L50.63 23.633L49.5711 24.2724L45.0249 27.0171L40.473 29.7666L35.904 32.5247L32.6049 34.5182C32.0774 34.8374 31.9226 35.5284 32.2551 36.0435L32.3058 36.1199C32.583 36.5404 33.1401 36.6666 33.5673 36.4085L36.9485 34.3682L41.5434 31.5919L46.0915 28.8444L50.652 26.0901L51.7147 25.4488L52.8462 24.7665L55.5671 23.1227C55.6684 23.0615 55.7936 23.0568 55.8977 23.1122L58.8985 24.6948C59.1088 24.8066 59.3639 24.798 59.5666 24.6747L60.2652 24.2523C60.3703 24.1902 60.4334 24.0736 60.4296 23.9503C60.4267 23.827 60.355 23.7162 60.2479 23.6588L57.0149 21.9558L57.1936 21.8488L60.6216 23.6531C60.8338 23.7658 61.0842 23.7582 61.2906 23.6349L61.9882 23.2116C62.0934 23.1485 62.1574 23.0329 62.1545 22.9096C62.1517 22.7853 62.081 22.6755 61.9711 22.6162L58.738 20.9151L58.9158 20.8071L62.3428 22.6124Z" fill="#B0F127"/>
</svg>
