<svg width="72" height="72" viewBox="0 0 72 72" fill="none" xmlns="http://www.w3.org/2000/svg">
<rect width="72" height="72" rx="36" fill="#1E1F21"/>
<path fill-rule="evenodd" clip-rule="evenodd" d="M31.8387 17C32.825 17 33.6245 17.7675 33.6245 18.7143V21.2857C33.6245 22.2325 32.825 23 31.8387 23C30.8525 23 30.053 22.2325 30.053 21.2857V18.7143C30.053 17.7675 30.8525 17 31.8387 17ZM21.5945 20.9307C22.2918 20.2612 23.4225 20.2612 24.1199 20.9307L25.9056 22.645C26.6029 23.3144 26.6029 24.3999 25.9056 25.0693C25.2082 25.7388 24.0775 25.7388 23.3802 25.0693L21.5945 23.3551C20.8971 22.6856 20.8971 21.6002 21.5945 20.9307ZM41.977 20.9307C42.6743 21.6002 42.6743 22.6856 41.977 23.3551L40.1913 25.0693C39.494 25.7388 38.3633 25.7388 37.6659 25.0693C36.9686 24.3999 36.9686 23.3144 37.6659 22.645L39.4516 20.9307C40.149 20.2612 41.2797 20.2612 41.977 20.9307ZM17.5 30.7653C17.5 29.8185 18.2995 29.051 19.2857 29.051H21.9643C22.9505 29.051 23.75 29.8185 23.75 30.7653C23.75 31.7121 22.9505 32.4795 21.9643 32.4795H19.2857C18.2995 32.4795 17.5 31.7121 17.5 30.7653ZM25.9056 36.3593C26.6029 37.0287 26.6029 38.1142 25.9056 38.7836L24.1199 40.4979C23.4225 41.1674 22.2918 41.1674 21.5945 40.4979C20.8971 39.8285 20.8971 38.743 21.5945 38.0736L23.3802 36.3593C24.0775 35.6899 25.2082 35.6899 25.9056 36.3593Z" fill="white"/>
<path d="M54.9978 35.4377C55.2303 35.7307 55.5036 36.1818 55.5 36.7452C55.4907 38.1131 54.5217 39.0485 53.5817 39.6406C52.6162 40.2487 51.3756 40.698 50.1695 41.0443C48.9461 41.3957 47.6632 41.6669 46.5689 41.8853C45.8063 42.035 44.4519 42.3017 44.0635 42.4067C43.423 42.5796 43.2934 42.6915 43.2514 42.7351C43.2033 42.7849 43.0904 42.9346 42.9405 43.5914L42.9347 43.6168C42.2324 46.6925 41.6803 49.11 41.0898 50.7575C40.7947 51.5806 40.4526 52.3246 40.0032 52.8862C39.5294 53.4785 38.8553 53.9597 37.9486 53.9983C37.3515 54.0236 36.8719 53.7613 36.569 53.5447C36.2462 53.3137 35.9523 53.0115 35.6898 52.6958C35.1615 52.0602 34.6156 51.1925 34.0799 50.2068C33.0015 48.2223 31.8642 45.5706 30.9035 42.8488C29.9434 40.1286 29.1401 37.2828 28.7521 34.9086C28.5588 33.7257 28.4604 32.6121 28.5149 31.6681C28.5658 30.788 28.7612 29.7785 29.4296 29.0854C30.119 28.3704 31.1692 28.1277 32.0879 28.0425C33.0685 27.9515 34.2282 28.0128 35.4585 28.1682C37.9282 28.4802 40.9 29.2002 43.7454 30.0822C46.5933 30.9649 49.3753 32.0288 51.4662 33.0522C52.5051 33.5606 53.421 34.0821 54.096 34.5914C54.4316 34.8445 54.7513 35.1272 54.9978 35.4377Z" fill="#B0F127"/>
</svg>
