<svg width="20" height="20" viewBox="0 0 20 20" fill="none" xmlns="http://www.w3.org/2000/svg">
<g clip-path="url(#clip0_26_10172)">
<path d="M10.0013 1.66602C12.2655 1.66602 12.548 1.67436 13.4363 1.71602C14.3238 1.75769 14.928 1.89686 15.4597 2.10352C16.0097 2.31519 16.473 2.60186 16.9363 3.06436C17.3601 3.48094 17.688 3.98485 17.8972 4.54102C18.103 5.07186 18.243 5.67686 18.2847 6.56436C18.3238 7.45269 18.3347 7.73519 18.3347 9.99933C18.3347 12.2635 18.3263 12.546 18.2847 13.4343C18.243 14.3218 18.103 14.926 17.8972 15.4577C17.6886 16.0141 17.3606 16.5182 16.9363 16.9343C16.5196 17.3579 16.0158 17.6858 15.4597 17.8952C14.9288 18.101 14.3238 18.241 13.4363 18.2827C12.548 18.3218 12.2655 18.3327 10.0013 18.3327C7.73714 18.3327 7.45464 18.3243 6.56631 18.2827C5.67881 18.241 5.07464 18.101 4.54297 17.8952C3.98658 17.6864 3.48258 17.3584 3.06631 16.9343C2.64248 16.5178 2.31458 16.0139 2.10547 15.4577C1.89881 14.9268 1.75964 14.3218 1.71797 13.4343C1.67881 12.546 1.66797 12.2635 1.66797 9.99933C1.66797 7.73519 1.67631 7.45269 1.71797 6.56436C1.75964 5.67602 1.89881 5.07269 2.10547 4.54102C2.314 3.98451 2.64198 3.48046 3.06631 3.06436C3.4827 2.64038 3.98666 2.31246 4.54297 2.10352C5.07464 1.89686 5.67797 1.75769 6.56631 1.71602C7.45464 1.67686 7.73714 1.66602 10.0013 1.66602ZM10.0013 5.83269C8.89624 5.83269 7.83643 6.27168 7.05503 7.05308C6.27363 7.83448 5.83464 8.89429 5.83464 9.99933C5.83464 11.1044 6.27363 12.1642 7.05503 12.9456C7.83643 13.727 8.89624 14.166 10.0013 14.166C11.1064 14.166 12.1662 13.727 12.9476 12.9456C13.729 12.1642 14.168 11.1044 14.168 9.99933C14.168 8.89429 13.729 7.83448 12.9476 7.05308C12.1662 6.27168 11.1064 5.83269 10.0013 5.83269ZM15.418 5.62436C15.418 5.34809 15.3082 5.08314 15.1129 4.88779C14.9175 4.69244 14.6526 4.58269 14.3763 4.58269C14.1001 4.58269 13.8351 4.69244 13.6398 4.88779C13.4444 5.08314 13.3347 5.34809 13.3347 5.62436C13.3347 5.90062 13.4444 6.16557 13.6398 6.36093C13.8351 6.55628 14.1001 6.66602 14.3763 6.66602C14.6526 6.66602 14.9175 6.55628 15.1129 6.36093C15.3082 6.16557 15.418 5.90062 15.418 5.62436ZM10.0013 7.49936C10.6644 7.49936 11.3003 7.76275 11.7691 8.23159C12.2379 8.70043 12.5013 9.33631 12.5013 9.99933C12.5013 10.6624 12.2379 11.2983 11.7691 11.7671C11.3003 12.2359 10.6644 12.4993 10.0013 12.4993C9.33826 12.4993 8.70238 12.2359 8.23354 11.7671C7.7647 11.2983 7.50131 10.6624 7.50131 9.99933C7.50131 9.33631 7.7647 8.70043 8.23354 8.23159C8.70238 7.76275 9.33826 7.49936 10.0013 7.49936Z" fill="black"/>
</g>
<defs>
<clipPath id="clip0_26_10172">
<rect width="20" height="20" fill="white"/>
</clipPath>
</defs>
</svg>
