<svg width="20" height="20" viewBox="0 0 20 20" fill="none" xmlns="http://www.w3.org/2000/svg">
<g clip-path="url(#clip0_26_10167)">
<path d="M5.78255 4.16555C5.78233 4.60758 5.60652 5.03142 5.2938 5.34382C4.98109 5.65623 4.55708 5.83161 4.11505 5.83139C3.67302 5.83117 3.24919 5.65536 2.93678 5.34264C2.62438 5.02993 2.44899 4.60591 2.44922 4.16389C2.44944 3.72186 2.62524 3.29802 2.93796 2.98562C3.25068 2.67322 3.67469 2.49783 4.11672 2.49805C4.55874 2.49827 4.98258 2.67408 5.29498 2.9868C5.60739 3.29952 5.78277 3.72353 5.78255 4.16555ZM5.83255 7.06555H2.49922V17.4989H5.83255V7.06555ZM11.0992 7.06555H7.78255V17.4989H11.0659V12.0239C11.0659 8.97389 15.0409 8.69055 15.0409 12.0239V17.4989H18.3325V10.8905C18.3325 5.74889 12.4492 5.94055 11.0659 8.46555L11.0992 7.06555Z" fill="black"/>
</g>
<defs>
<clipPath id="clip0_26_10167">
<rect width="20" height="20" fill="white"/>
</clipPath>
</defs>
</svg>
