<svg width="180" height="32" viewBox="0 0 180 32" fill="none" xmlns="http://www.w3.org/2000/svg">
<path fill-rule="evenodd" clip-rule="evenodd" d="M26.4222 7.4428C26.7043 7.4428 26.8619 7.13803 26.6822 6.92057C25.5567 5.55802 22.0394 2 16 2C8.26801 2 2 8.26801 2 16C2 21.192 4.82633 25.7239 9.02438 28.1411L13.4431 16.1035C14.0582 14.9468 13.2021 13.563 11.8715 13.563L9.2036 13.5629C7.51362 13.5629 6.14365 12.1928 6.14365 10.5029C6.14365 8.81284 7.51368 7.4428 9.20371 7.4428H10.4751H26.4222Z" fill="white"/>
<path fill-rule="evenodd" clip-rule="evenodd" d="M16 2C8.26801 2 2 8.26801 2 16C2 21.192 4.82633 25.7239 9.02438 28.1411L13.4431 16.1035C14.0582 14.9468 13.2021 13.563 11.8715 13.563L9.2036 13.5629C7.51362 13.5629 6.14365 12.1928 6.14365 10.5029C6.14365 8.81284 7.51368 7.4428 9.20371 7.4428H10.4751H26.4222C26.7043 7.4428 26.8619 7.13803 26.6822 6.92057C25.5567 5.55802 22.0394 2 16 2ZM29.9286 14.7662C29.8523 14.0604 29.238 13.5628 28.5281 13.5629L24.8046 13.563C22.4196 13.563 20.2339 14.8677 19.1393 16.9449L14.3699 29.9061C14.9047 29.9681 15.4486 30 16 30C23.732 30 30 23.732 30 16C30 15.5676 29.969 15.1398 29.9286 14.7662Z" fill="white"/>
<path fill-rule="evenodd" clip-rule="evenodd" d="M14.3699 29.9061C14.9047 29.9681 15.4486 30 16 30C23.732 30 30 23.732 30 16C30 15.5676 29.969 15.1398 29.9286 14.7662C29.8523 14.0604 29.238 13.5628 28.5281 13.5629L24.8046 13.563C22.4196 13.563 20.2339 14.8677 19.1393 16.9449L14.3699 29.9061Z" fill="white"/>
<path d="M45.3762 11.533H48.4576V13.7768H45.3762V23.3801C45.3762 23.6792 45.3961 23.9186 45.436 24.0981C45.4958 24.2776 45.5956 24.4172 45.7352 24.5169C45.8748 24.6166 46.0643 24.6864 46.3036 24.7263C46.5629 24.7463 46.892 24.7562 47.2909 24.7562H48.4576V27H46.513C45.8548 27 45.2864 26.9601 44.8078 26.8803C44.349 26.7806 43.9701 26.6111 43.6709 26.3717C43.3917 26.1324 43.1823 25.7934 43.0427 25.3546C42.9031 24.9158 42.8332 24.3374 42.8332 23.6194V13.7768H40.2006V11.533H42.8332V6.89588H45.3762V11.533ZM64.9846 26.9402C64.5458 27.1994 63.9375 27.3291 63.1596 27.3291C62.5015 27.3291 61.9729 27.1496 61.574 26.7906C61.1951 26.4116 61.0056 25.8033 61.0056 24.9657C60.3076 25.8033 59.4898 26.4116 58.5524 26.7906C57.635 27.1496 56.6378 27.3291 55.5608 27.3291C54.8627 27.3291 54.1946 27.2493 53.5563 27.0898C52.9381 26.9302 52.3995 26.6809 51.9408 26.3418C51.4821 26.0028 51.1131 25.564 50.8339 25.0255C50.5746 24.467 50.445 23.7989 50.445 23.0211C50.445 22.1435 50.5946 21.4255 50.8937 20.867C51.1929 20.3086 51.5818 19.8598 52.0605 19.5208C52.5591 19.1618 53.1176 18.8925 53.7358 18.713C54.3741 18.5335 55.0223 18.3839 55.6804 18.2643C56.3785 18.1247 57.0367 18.0249 57.6549 17.9651C58.2932 17.8853 58.8516 17.7856 59.3303 17.6659C59.809 17.5263 60.1879 17.3369 60.4671 17.0975C60.7463 16.8382 60.886 16.4693 60.886 15.9906C60.886 15.4322 60.7763 14.9834 60.5569 14.6443C60.3574 14.3053 60.0882 14.046 59.7491 13.8665C59.43 13.687 59.061 13.5673 58.6422 13.5075C58.2433 13.4477 57.8444 13.4178 57.4455 13.4178C56.3685 13.4178 55.471 13.6272 54.753 14.046C54.035 14.4449 53.6461 15.2128 53.5862 16.3496H51.0433C51.0832 15.3923 51.2827 14.5845 51.6417 13.9263C52.0007 13.2682 52.4793 12.7396 53.0777 12.3407C53.676 11.9219 54.3541 11.6227 55.112 11.4432C55.8898 11.2637 56.7175 11.174 57.5951 11.174C58.2932 11.174 58.9813 11.2238 59.6594 11.3236C60.3574 11.4233 60.9857 11.6327 61.5441 11.9518C62.1026 12.251 62.5513 12.6798 62.8904 13.2383C63.2294 13.7967 63.399 14.5247 63.399 15.4222V23.3801C63.399 23.9784 63.4289 24.4172 63.4887 24.6964C63.5685 24.9756 63.8078 25.1152 64.2067 25.1152C64.4261 25.1152 64.6854 25.0654 64.9846 24.9657V26.9402ZM60.856 19.0122C60.5369 19.2515 60.1181 19.431 59.5995 19.5507C59.081 19.6504 58.5325 19.7402 57.9541 19.82C57.3957 19.8798 56.8272 19.9596 56.2488 20.0593C55.6705 20.1391 55.1519 20.2787 54.6932 20.4781C54.2344 20.6776 53.8555 20.9668 53.5563 21.3457C53.2771 21.7047 53.1375 22.2033 53.1375 22.8416C53.1375 23.2604 53.2173 23.6194 53.3768 23.9186C53.5563 24.1978 53.7757 24.4272 54.035 24.6067C54.3142 24.7862 54.6333 24.9158 54.9923 24.9956C55.3513 25.0753 55.7303 25.1152 56.1292 25.1152C56.9669 25.1152 57.6849 25.0055 58.2832 24.7862C58.8815 24.5468 59.3702 24.2576 59.7491 23.9186C60.1281 23.5596 60.4073 23.1806 60.5868 22.7817C60.7663 22.3629 60.856 21.974 60.856 21.615V19.0122ZM68.9069 22.1236C68.9269 22.682 69.0565 23.1607 69.2959 23.5596C69.5352 23.9385 69.8443 24.2476 70.2233 24.487C70.6222 24.7064 71.061 24.8659 71.5396 24.9657C72.0382 25.0654 72.5468 25.1152 73.0654 25.1152C73.4643 25.1152 73.8831 25.0853 74.3219 25.0255C74.7607 24.9657 75.1596 24.856 75.5186 24.6964C75.8975 24.5368 76.2067 24.3075 76.446 24.0083C76.6853 23.6892 76.805 23.2903 76.805 22.8116C76.805 22.1535 76.5557 21.6549 76.0571 21.3158C75.5585 20.9767 74.9302 20.7075 74.1723 20.508C73.4344 20.2887 72.6266 20.0992 71.749 19.9396C70.8715 19.7601 70.0538 19.5208 69.2959 19.2216C68.5579 18.9025 67.9396 18.4637 67.441 17.9053C66.9424 17.3468 66.6931 16.569 66.6931 15.5718C66.6931 14.7939 66.8626 14.1258 67.2017 13.5673C67.5607 13.0089 68.0094 12.5601 68.5479 12.2211C69.1064 11.8621 69.7247 11.6028 70.4028 11.4432C71.1008 11.2637 71.7889 11.174 72.4671 11.174C73.3446 11.174 74.1524 11.2538 74.8903 11.4133C75.6283 11.5529 76.2765 11.8122 76.8349 12.1912C77.4133 12.5502 77.872 13.0488 78.2111 13.687C78.5501 14.3053 78.7496 15.0831 78.8094 16.0205H76.2665C76.2266 15.5219 76.097 15.113 75.8776 14.7939C75.6582 14.4549 75.379 14.1856 75.0399 13.9862C74.7008 13.7867 74.3219 13.6471 73.9031 13.5673C73.5042 13.4676 73.0953 13.4178 72.6765 13.4178C72.2975 13.4178 71.9086 13.4477 71.5097 13.5075C71.1308 13.5673 70.7817 13.677 70.4626 13.8366C70.1435 13.9762 69.8842 14.1756 69.6848 14.4349C69.4853 14.6743 69.3856 14.9934 69.3856 15.3923C69.3856 15.831 69.5352 16.2 69.8344 16.4992C70.1535 16.7784 70.5524 17.0177 71.031 17.2172C71.5097 17.3967 72.0482 17.5562 72.6466 17.6959C73.2449 17.8155 73.8432 17.9452 74.4416 18.0848C75.0798 18.2244 75.6981 18.3939 76.2964 18.5934C76.9147 18.7928 77.4532 19.0621 77.9119 19.4011C78.3906 19.7202 78.7695 20.1291 79.0488 20.6277C79.3479 21.1263 79.4975 21.7446 79.4975 22.4826C79.4975 23.42 79.2981 24.1978 78.8992 24.8161C78.5202 25.4344 78.0116 25.933 77.3734 26.3119C76.7551 26.6909 76.0471 26.9501 75.2493 27.0898C74.4715 27.2493 73.6936 27.3291 72.9158 27.3291C72.0582 27.3291 71.2405 27.2393 70.4626 27.0598C69.6848 26.8803 68.9967 26.5911 68.3984 26.1922C67.8 25.7734 67.3214 25.2349 66.9624 24.5767C66.6033 23.8986 66.4039 23.0809 66.364 22.1236H68.9069ZM82.4593 5.63937H85.0022V18.2942L92.0626 11.533H95.4731L89.3402 17.1574L95.9219 27H92.6908L87.3956 18.9225L85.0022 21.1363V27H82.4593V5.63937ZM101.353 11.533H104.435V13.7768H101.353V23.3801C101.353 23.6792 101.373 23.9186 101.413 24.0981C101.473 24.2776 101.573 24.4172 101.712 24.5169C101.852 24.6166 102.041 24.6864 102.281 24.7263C102.54 24.7463 102.869 24.7562 103.268 24.7562H104.435V27H102.49C101.832 27 101.264 26.9601 100.785 26.8803C100.326 26.7806 99.9473 26.6111 99.6481 26.3717C99.3689 26.1324 99.1595 25.7934 99.0199 25.3546C98.8803 24.9158 98.8105 24.3374 98.8105 23.6194V13.7768H96.1778V11.533H98.8105V6.89588H101.353V11.533ZM109.115 19.2815C109.115 20.2188 109.234 21.0565 109.474 21.7945C109.733 22.5125 110.082 23.1208 110.521 23.6194C110.96 24.0981 111.468 24.467 112.047 24.7263C112.645 24.9856 113.273 25.1152 113.931 25.1152C114.59 25.1152 115.208 24.9856 115.786 24.7263C116.385 24.467 116.903 24.0981 117.342 23.6194C117.781 23.1208 118.12 22.5125 118.359 21.7945C118.618 21.0565 118.748 20.2188 118.748 19.2815C118.748 18.3441 118.618 17.5164 118.359 16.7984C118.12 16.0604 117.781 15.4421 117.342 14.9435C116.903 14.4449 116.385 14.0659 115.786 13.8067C115.208 13.5474 114.59 13.4178 113.931 13.4178C113.273 13.4178 112.645 13.5474 112.047 13.8067C111.468 14.0659 110.96 14.4449 110.521 14.9435C110.082 15.4421 109.733 16.0604 109.474 16.7984C109.234 17.5164 109.115 18.3441 109.115 19.2815ZM106.422 19.2815C106.422 18.1446 106.582 17.0876 106.901 16.1103C107.22 15.113 107.699 14.2554 108.337 13.5374C108.975 12.7995 109.763 12.2211 110.7 11.8022C111.638 11.3834 112.715 11.174 113.931 11.174C115.168 11.174 116.245 11.3834 117.162 11.8022C118.1 12.2211 118.888 12.7995 119.526 13.5374C120.164 14.2554 120.643 15.113 120.962 16.1103C121.281 17.0876 121.44 18.1446 121.44 19.2815C121.44 20.4183 121.281 21.4754 120.962 22.4526C120.643 23.4299 120.164 24.2875 119.526 25.0255C118.888 25.7435 118.1 26.3119 117.162 26.7307C116.245 27.1296 115.168 27.3291 113.931 27.3291C112.715 27.3291 111.638 27.1296 110.7 26.7307C109.763 26.3119 108.975 25.7435 108.337 25.0255C107.699 24.2875 107.22 23.4299 106.901 22.4526C106.582 21.4754 106.422 20.4183 106.422 19.2815ZM134.94 16.4992C134.74 15.5219 134.321 14.764 133.683 14.2255C133.045 13.687 132.187 13.4178 131.11 13.4178C130.193 13.4178 129.425 13.5873 128.807 13.9263C128.188 14.2654 127.69 14.7141 127.311 15.2726C126.952 15.831 126.692 16.4792 126.533 17.2172C126.373 17.9352 126.294 18.6831 126.294 19.461C126.294 20.179 126.373 20.877 126.533 21.5551C126.712 22.2332 126.982 22.8416 127.341 23.3801C127.7 23.8986 128.168 24.3175 128.747 24.6366C129.325 24.9557 130.013 25.1152 130.811 25.1152C132.067 25.1152 133.045 24.7862 133.743 24.128C134.461 23.4698 134.9 22.5424 135.059 21.3457H137.662C137.383 23.2604 136.665 24.7363 135.508 25.7734C134.371 26.8105 132.815 27.3291 130.841 27.3291C129.664 27.3291 128.617 27.1396 127.7 26.7607C126.802 26.3817 126.044 25.8432 125.426 25.1452C124.828 24.4471 124.369 23.6194 124.05 22.6621C123.751 21.6848 123.601 20.6177 123.601 19.461C123.601 18.3042 123.751 17.2272 124.05 16.2299C124.349 15.2128 124.798 14.3352 125.396 13.5973C126.014 12.8394 126.782 12.251 127.7 11.8322C128.617 11.3934 129.684 11.174 130.901 11.174C131.778 11.174 132.596 11.2837 133.354 11.5031C134.132 11.7025 134.81 12.0216 135.388 12.4604C135.987 12.8992 136.475 13.4576 136.854 14.1358C137.233 14.7939 137.472 15.5817 137.572 16.4992H134.94ZM142.362 19.2815C142.362 20.2188 142.482 21.0565 142.721 21.7945C142.98 22.5125 143.329 23.1208 143.768 23.6194C144.207 24.0981 144.716 24.467 145.294 24.7263C145.892 24.9856 146.521 25.1152 147.179 25.1152C147.837 25.1152 148.455 24.9856 149.034 24.7263C149.632 24.467 150.151 24.0981 150.589 23.6194C151.028 23.1208 151.367 22.5125 151.606 21.7945C151.866 21.0565 151.995 20.2188 151.995 19.2815C151.995 18.3441 151.866 17.5164 151.606 16.7984C151.367 16.0604 151.028 15.4421 150.589 14.9435C150.151 14.4449 149.632 14.0659 149.034 13.8067C148.455 13.5474 147.837 13.4178 147.179 13.4178C146.521 13.4178 145.892 13.5474 145.294 13.8067C144.716 14.0659 144.207 14.4449 143.768 14.9435C143.329 15.4421 142.98 16.0604 142.721 16.7984C142.482 17.5164 142.362 18.3441 142.362 19.2815ZM139.67 19.2815C139.67 18.1446 139.829 17.0876 140.148 16.1103C140.467 15.113 140.946 14.2554 141.584 13.5374C142.223 12.7995 143.01 12.2211 143.948 11.8022C144.885 11.3834 145.962 11.174 147.179 11.174C148.415 11.174 149.492 11.3834 150.41 11.8022C151.347 12.2211 152.135 12.7995 152.773 13.5374C153.411 14.2554 153.89 15.113 154.209 16.1103C154.528 17.0876 154.688 18.1446 154.688 19.2815C154.688 20.4183 154.528 21.4754 154.209 22.4526C153.89 23.4299 153.411 24.2875 152.773 25.0255C152.135 25.7435 151.347 26.3119 150.41 26.7307C149.492 27.1296 148.415 27.3291 147.179 27.3291C145.962 27.3291 144.885 27.1296 143.948 26.7307C143.01 26.3119 142.223 25.7435 141.584 25.0255C140.946 24.2875 140.467 23.4299 140.148 22.4526C139.829 21.4754 139.67 20.4183 139.67 19.2815ZM160.379 8.75072H157.836V5.63937H160.379V8.75072ZM157.836 11.533H160.379V27H157.836V11.533ZM164.318 11.533H166.711V13.9862H166.771C167.828 12.1114 169.504 11.174 171.797 11.174C172.814 11.174 173.662 11.3136 174.34 11.5928C175.018 11.872 175.567 12.261 175.986 12.7596C176.404 13.2582 176.694 13.8565 176.853 14.5546C177.033 15.2327 177.122 15.9906 177.122 16.8283V27H174.58V16.5291C174.58 15.5718 174.3 14.8139 173.742 14.2554C173.183 13.697 172.416 13.4178 171.438 13.4178C170.66 13.4178 169.982 13.5374 169.404 13.7768C168.845 14.0161 168.377 14.3551 167.998 14.7939C167.619 15.2327 167.33 15.7513 167.13 16.3496C166.951 16.928 166.861 17.5662 166.861 18.2643V27H164.318V11.533Z" fill="white"/>
</svg>
