<svg width="1248" height="479" viewBox="0 0 1248 479" fill="none" xmlns="http://www.w3.org/2000/svg">
<g style="mix-blend-mode:color-dodge">
<path opacity="0.05" d="M1247.5 326.5C1247.5 416.381 1177.86 497.874 1065 556.927C952.166 615.968 796.249 652.5 624 652.5C451.751 652.5 295.834 615.968 182.997 556.927C70.1366 497.874 0.5 416.381 0.5 326.5C0.5 236.619 70.1366 155.126 182.997 96.0727C295.834 37.0323 451.751 0.5 624 0.5C796.249 0.5 952.166 37.0323 1065 96.0727C1177.86 155.126 1247.5 236.619 1247.5 326.5Z" stroke="white"/>
<path opacity="0.1" d="M1150.5 326.5C1150.5 402.366 1091.72 471.171 996.413 521.039C901.13 570.894 769.463 601.746 624 601.746C478.537 601.746 346.87 570.894 251.587 521.039C156.279 471.171 97.5 402.366 97.5 326.5C97.5 250.634 156.279 181.829 251.587 131.961C346.87 82.1053 478.537 51.2539 624 51.2539C769.463 51.2539 901.13 82.1053 996.413 131.961C1091.72 181.829 1150.5 250.634 1150.5 326.5Z" stroke="white"/>
<path opacity="0.1" d="M1034.5 326.5C1034.5 385.605 988.704 439.236 914.389 478.121C840.098 516.993 737.43 541.05 624 541.05C510.57 541.05 407.902 516.993 333.611 478.121C259.296 439.236 213.5 385.605 213.5 326.5C213.5 267.395 259.296 213.764 333.611 174.879C407.902 136.007 510.57 111.949 624 111.949C737.43 111.949 840.098 136.007 914.389 174.879C988.704 213.764 1034.5 267.395 1034.5 326.5Z" stroke="white"/>
<path opacity="0.1" d="M912.5 326.5C912.5 367.977 880.36 405.65 828.122 432.982C775.908 460.303 703.741 477.216 624 477.216C544.259 477.216 472.092 460.303 419.878 432.982C367.64 405.65 335.5 367.977 335.5 326.5C335.5 285.022 367.64 247.35 419.878 220.017C472.092 192.697 544.259 175.784 624 175.784C703.741 175.784 775.908 192.697 828.122 220.017C880.36 247.35 912.5 285.022 912.5 326.5Z" stroke="white"/>
<path opacity="0.1" d="M808.5 326.5C808.5 352.951 788 377.019 754.583 394.504C721.19 411.977 675.022 422.799 624 422.799C572.978 422.799 526.81 411.977 493.417 394.504C460 377.019 439.5 352.951 439.5 326.5C439.5 300.049 460 275.981 493.417 258.496C526.81 241.023 572.978 230.201 624 230.201C675.022 230.201 721.19 241.023 754.583 258.496C788 275.981 808.5 300.049 808.5 326.5Z" stroke="white"/>
</g>
</svg>
