<svg width="387" height="914" viewBox="0 0 387 914" fill="none" xmlns="http://www.w3.org/2000/svg">
<path opacity="0.05" d="M277.289 746.333C124.525 654.142 72.1701 449.949 160.381 290.246C248.592 130.544 443.948 75.8405 596.711 168.031C749.475 260.222 801.83 464.415 713.619 624.118C625.408 783.821 430.052 838.524 277.289 746.333Z" stroke="white"/>
<path opacity="0.1" d="M302.153 701.317C173.174 623.481 128.969 451.078 203.447 316.237C277.926 181.396 442.868 135.211 571.846 213.048C700.825 290.884 745.031 463.287 670.552 598.128C596.073 732.969 431.131 779.154 302.153 701.317Z" stroke="white"/>
<path opacity="0.1" d="M331.888 647.484C231.353 586.813 196.893 452.428 254.95 347.318C313.007 242.209 441.577 206.211 542.112 266.882C642.646 327.553 677.107 461.938 619.05 567.048C560.993 672.157 432.422 708.155 331.888 647.484Z" stroke="white"/>
<path opacity="0.1" d="M363.162 590.865C292.542 548.247 268.332 453.846 309.117 380.006C349.902 306.166 440.22 280.881 510.84 323.499C581.459 366.117 605.67 460.518 564.884 534.358C524.099 608.198 433.781 633.482 363.162 590.865Z" stroke="white"/>
<path opacity="0.1" d="M389.821 542.601C344.703 515.373 329.23 455.057 355.292 407.872C381.354 360.688 439.063 344.537 484.181 371.765C529.299 398.993 544.772 459.309 518.71 506.493C492.648 553.677 434.938 569.829 389.821 542.601Z" stroke="white"/>
</svg>
